<svg width="16" height="16" viewBox="0 0 16 16" fill="none" xmlns="http://www.w3.org/2000/svg">
<path d="M8 12H8.25L8 11.9995V12Z" fill="#E53E3E"/>
<path d="M14.8279 12.677L9.43437 1.88699C9.30105 1.62042 9.09615 1.39623 8.84261 1.23955C8.58907 1.08287 8.29691 0.999878 7.99887 0.999878C7.70082 0.999878 7.40866 1.08287 7.15512 1.23955C6.90158 1.39623 6.69668 1.62042 6.56336 1.88699L1.16987 12.677C1.04734 12.9216 0.989411 13.1936 1.00159 13.4669C1.01377 13.7403 1.09565 14.0059 1.23945 14.2387C1.38325 14.4715 1.58419 14.6637 1.82317 14.7969C2.06216 14.9301 2.33125 15.0001 2.60487 15H13.3929C13.6665 15.0001 13.9356 14.9301 14.1746 14.7969C14.4135 14.6637 14.6145 14.4715 14.7583 14.2387C14.9021 14.0059 14.984 13.7403 14.9961 13.4669C15.0083 13.1936 14.9504 12.9216 14.8279 12.677ZM7.99887 12.5C7.89997 12.5 7.8033 12.4707 7.72108 12.4157C7.63886 12.3608 7.57477 12.2827 7.53693 12.1913C7.49908 12.1 7.48918 11.9994 7.50847 11.9024C7.52777 11.8055 7.57539 11.7164 7.64531 11.6464C7.71524 11.5765 7.80433 11.5289 7.90132 11.5096C7.99831 11.4903 8.09884 11.5002 8.19021 11.538C8.28157 11.5759 8.35966 11.64 8.4146 11.7222C8.46954 11.8044 8.49887 11.9011 8.49887 12C8.49887 12.1326 8.44619 12.2598 8.35242 12.3535C8.25865 12.4473 8.13147 12.5 7.99887 12.5ZM8.49887 9.99999C8.49887 10.1326 8.44619 10.2598 8.35242 10.3535C8.25865 10.4473 8.13147 10.5 7.99887 10.5C7.86626 10.5 7.73908 10.4473 7.64531 10.3535C7.55154 10.2598 7.49887 10.1326 7.49887 9.99999V5.99999C7.49887 5.86738 7.55154 5.7402 7.64531 5.64644C7.73908 5.55267 7.86626 5.49999 7.99887 5.49999C8.13147 5.49999 8.25865 5.55267 8.35242 5.64644C8.44619 5.7402 8.49887 5.86738 8.49887 5.99999V9.99999Z" fill="#E53E3E"/>
</svg>
