<svg width="22" height="22" viewBox="0 0 22 22" fill="none" xmlns="http://www.w3.org/2000/svg">
<g clip-path="url(#clip0_1535_27583)">
<path d="M16.4448 16.4451C14.8779 17.6395 12.9699 18.3012 10.9998 18.3334C4.58317 18.3334 0.916504 11.0001 0.916504 11.0001C2.05674 8.87513 3.63821 7.01862 5.55484 5.55506M9.07484 3.88673C9.70581 3.73903 10.3518 3.6652 10.9998 3.66673C17.4165 3.66673 21.0832 11.0001 21.0832 11.0001C20.5267 12.041 19.8631 13.0211 19.1032 13.9242M12.9432 12.9434C12.6914 13.2136 12.3878 13.4303 12.0505 13.5806C11.7131 13.7309 11.349 13.8117 10.9798 13.8182C10.6105 13.8247 10.2437 13.7568 9.90131 13.6185C9.55889 13.4802 9.24783 13.2743 8.9867 13.0132C8.72556 12.7521 8.5197 12.441 8.38139 12.0986C8.24308 11.7562 8.17515 11.3894 8.18167 11.0201C8.18818 10.6509 8.269 10.2867 8.41931 9.94942C8.56961 9.61209 8.78632 9.30849 9.0565 9.05673" stroke="#A0AEC0" stroke-width="2" stroke-linecap="round" stroke-linejoin="round"/>
<path d="M0.916504 0.916725L21.0832 21.0834" stroke="#A0AEC0" stroke-width="2" stroke-linecap="round" stroke-linejoin="round"/>
</g>
<defs>
<clipPath id="clip0_1535_27583">
<rect width="22" height="22" fill="white"/>
</clipPath>
</defs>
</svg>
