<svg width="19" height="18" viewBox="0 0 19 18" fill="none" xmlns="http://www.w3.org/2000/svg">
<g clip-path="url(#clip0_988_19475)">
<path d="M17.4764 6.67356L10.7698 4.87716L9.59589 0.502259C9.49769 0.136859 9.10488 -0.0755411 8.71927 0.0261589L0.542337 2.21496C0.156734 2.31756 -0.0757087 2.69916 0.0224939 3.06456L2.93253 13.9105C3.03074 14.2759 3.42264 14.4892 3.80735 14.3848L7.06244 13.5145L6.61918 15.1687C6.52098 15.5341 6.75342 15.9157 7.13902 16.0174L14.4457 17.974C14.8313 18.0775 15.2223 17.8651 15.3214 17.4979L17.9972 7.52226C18.0945 7.15686 17.862 6.77526 17.4764 6.67356ZM1.47121 3.26796L8.52557 1.38156L11.1365 11.1178L4.08213 13.0042L1.47121 3.26796ZM14.1249 16.6168L7.98591 14.9401L8.46881 13.1383L11.9834 12.196C12.369 12.0943 12.6032 11.7127 12.5041 11.3473L11.1455 6.28296L16.5034 7.75086L14.1249 16.6168Z" fill="white"/>
</g>
<defs>
<clipPath id="clip0_988_19475">
<rect width="18.0188" height="18" fill="white"/>
</clipPath>
</defs>
</svg>
