<svg width="18" height="18" viewBox="0 0 18 18" fill="none" xmlns="http://www.w3.org/2000/svg">
<path d="M15.4133 14.4919L12.2892 11.3679C13.0413 10.3666 13.4474 9.1478 13.446 7.89549C13.446 4.6967 10.8435 2.09424 7.64475 2.09424C4.44597 2.09424 1.84351 4.6967 1.84351 7.89549C1.84351 11.0943 4.44597 13.6967 7.64475 13.6967C8.89707 13.6981 10.1158 13.2921 11.1171 12.5399L14.2412 15.664C14.3994 15.8054 14.6056 15.8808 14.8176 15.8749C15.0297 15.869 15.2314 15.7821 15.3814 15.6321C15.5314 15.4821 15.6182 15.2804 15.6242 15.0684C15.6301 14.8563 15.5546 14.6501 15.4133 14.4919ZM3.50101 7.89549C3.50101 7.07593 3.74403 6.27478 4.19935 5.59334C4.65467 4.91191 5.30184 4.38079 6.05901 4.06716C6.81618 3.75353 7.64935 3.67147 8.45316 3.83136C9.25697 3.99125 9.99531 4.3859 10.5748 4.96541C11.1543 5.54493 11.549 6.28327 11.7089 7.08708C11.8688 7.89089 11.7867 8.72406 11.4731 9.48123C11.1594 10.2384 10.6283 10.8856 9.9469 11.3409C9.26546 11.7962 8.46431 12.0392 7.64475 12.0392C6.54617 12.0379 5.49295 11.6009 4.71614 10.8241C3.93932 10.0473 3.50232 8.99407 3.50101 7.89549Z" fill="#A0AEC0"/>
</svg>
